<svg xmlns="http://www.w3.org/2000/svg" xmlns:xlink="http://www.w3.org/1999/xlink" width="500" zoomAndPan="magnify" viewBox="0 0 375 74.999997" height="100" preserveAspectRatio="xMidYMid meet" version="1.0"><defs><g/><clipPath id="ee98a54de3"><rect x="0" width="365" y="0" height="68"/></clipPath><clipPath id="a3ebd3011a"><path d="M 150.496094 56 L 175 56 L 175 58.78125 L 150.496094 58.78125 Z M 150.496094 56 " clip-rule="nonzero"/></clipPath><clipPath id="0833352b8a"><path d="M 154 19.03125 L 187.246094 19.03125 L 187.246094 58.78125 L 154 58.78125 Z M 154 19.03125 " clip-rule="nonzero"/></clipPath></defs><g transform="matrix(1, 0, 0, 1, 7, 3)"><g clip-path="url(#ee98a54de3)"><g fill="#000000" fill-opacity="1"><g transform="translate(0.500007, 55.938337)"><g><path d="M 7.890625 -23.171875 L 9.203125 -21.96875 C 11.460938 -19.957031 13.234375 -18.253906 14.515625 -16.859375 C 15.796875 -15.472656 16.695312 -14.160156 17.21875 -12.921875 C 17.75 -11.679688 18.015625 -10.238281 18.015625 -8.59375 C 18.054688 -7.25 17.828125 -5.890625 17.328125 -4.515625 C 16.835938 -3.148438 15.976562 -1.988281 14.75 -1.03125 C 13.53125 -0.0820312 11.804688 0.390625 9.578125 0.390625 C 7.535156 0.390625 5.898438 -0.03125 4.671875 -0.875 C 3.453125 -1.71875 2.550781 -2.820312 1.96875 -4.1875 C 1.382812 -5.5625 1 -7.050781 0.8125 -8.65625 C 0.632812 -10.257812 0.546875 -11.828125 0.546875 -13.359375 L 0.984375 -13.421875 C 0.953125 -8.671875 1.671875 -5.300781 3.140625 -3.3125 C 4.617188 -1.320312 6.675781 -0.328125 9.3125 -0.328125 C 11.539062 -0.328125 13.320312 -0.960938 14.65625 -2.234375 C 15.988281 -3.515625 16.632812 -5.253906 16.59375 -7.453125 C 16.59375 -9.421875 16.15625 -11.125 15.28125 -12.5625 C 14.40625 -14.007812 13.300781 -15.351562 11.96875 -16.59375 C 10.632812 -17.832031 9.253906 -19.109375 7.828125 -20.421875 L 6.40625 -21.734375 C 5.195312 -22.910156 4.128906 -24.191406 3.203125 -25.578125 C 2.273438 -26.960938 1.8125 -28.75 1.8125 -30.9375 C 1.8125 -33.09375 2.398438 -34.84375 3.578125 -36.1875 C 4.765625 -37.539062 6.289062 -38.21875 8.15625 -38.21875 C 9.800781 -38.21875 11.113281 -37.671875 12.09375 -36.578125 C 13.082031 -35.484375 14.015625 -34.039062 14.890625 -32.25 L 14.890625 -38.21875 L 15.21875 -38.21875 L 17.3125 -23.328125 L 16.875 -23.28125 C 16.101562 -26.53125 15.332031 -29.117188 14.5625 -31.046875 C 13.800781 -32.984375 13.054688 -34.425781 12.328125 -35.375 C 11.597656 -36.320312 10.882812 -36.953125 10.1875 -37.265625 C 9.488281 -37.578125 8.832031 -37.734375 8.21875 -37.734375 C 6.425781 -37.734375 5.09375 -37.128906 4.21875 -35.921875 C 3.34375 -34.722656 2.90625 -33.375 2.90625 -31.875 C 2.90625 -30.707031 3.078125 -29.664062 3.421875 -28.75 C 3.765625 -27.84375 4.300781 -26.957031 5.03125 -26.09375 C 5.769531 -25.238281 6.722656 -24.265625 7.890625 -23.171875 Z M 7.890625 -23.171875 "/></g></g></g><g fill="#000000" fill-opacity="1"><g transform="translate(22.13132, 55.938337)"><g><path d="M 28.75 0 L 28.75 -0.609375 L 31.484375 -0.609375 C 31.992188 -0.609375 32.332031 -0.734375 32.5 -0.984375 C 32.664062 -1.242188 32.75 -1.789062 32.75 -2.625 L 32.75 -18.671875 L 6.625 -18.671875 L 6.625 -2.625 C 6.625 -1.789062 6.707031 -1.242188 6.875 -0.984375 C 7.039062 -0.734375 7.378906 -0.609375 7.890625 -0.609375 L 10.625 -0.609375 L 10.625 0 L 0.65625 0 L 0.65625 -0.609375 L 3.390625 -0.609375 C 3.898438 -0.609375 4.238281 -0.734375 4.40625 -0.984375 C 4.570312 -1.242188 4.65625 -1.789062 4.65625 -2.625 L 4.65625 -35.109375 C 4.65625 -35.941406 4.570312 -36.484375 4.40625 -36.734375 C 4.238281 -36.992188 3.898438 -37.125 3.390625 -37.125 L 0.65625 -37.125 L 0.65625 -37.734375 L 10.625 -37.734375 L 10.625 -37.125 L 7.890625 -37.125 C 7.378906 -37.125 7.039062 -36.992188 6.875 -36.734375 C 6.707031 -36.484375 6.625 -35.941406 6.625 -35.109375 L 6.625 -19.28125 L 32.75 -19.28125 L 32.75 -35.109375 C 32.75 -35.941406 32.664062 -36.484375 32.5 -36.734375 C 32.332031 -36.992188 31.992188 -37.125 31.484375 -37.125 L 28.75 -37.125 L 28.75 -37.734375 L 38.71875 -37.734375 L 38.71875 -37.125 L 35.984375 -37.125 C 35.472656 -37.125 35.132812 -36.992188 34.96875 -36.734375 C 34.800781 -36.484375 34.71875 -35.941406 34.71875 -35.109375 L 34.71875 -2.625 C 34.71875 -1.789062 34.800781 -1.242188 34.96875 -0.984375 C 35.132812 -0.734375 35.472656 -0.609375 35.984375 -0.609375 L 38.71875 -0.609375 L 38.71875 0 Z M 28.75 0 "/></g></g></g><g fill="#000000" fill-opacity="1"><g transform="translate(63.476465, 55.938337)"><g><path d="M 20.09375 0.390625 C 16.375 0.390625 13.085938 -0.394531 10.234375 -1.96875 C 7.390625 -3.539062 5.171875 -5.710938 3.578125 -8.484375 C 1.992188 -11.265625 1.203125 -14.460938 1.203125 -18.078125 C 1.203125 -20.890625 1.6875 -23.515625 2.65625 -25.953125 C 3.625 -28.398438 4.972656 -30.546875 6.703125 -32.390625 C 8.441406 -34.234375 10.488281 -35.664062 12.84375 -36.6875 C 15.195312 -37.707031 17.742188 -38.21875 20.484375 -38.21875 C 24.203125 -38.21875 27.476562 -37.394531 30.3125 -35.75 C 33.144531 -34.113281 35.363281 -31.832031 36.96875 -28.90625 C 38.570312 -25.988281 39.375 -22.597656 39.375 -18.734375 C 39.375 -16.097656 38.878906 -13.617188 37.890625 -11.296875 C 36.910156 -8.984375 35.539062 -6.953125 33.78125 -5.203125 C 32.03125 -3.453125 29.988281 -2.082031 27.65625 -1.09375 C 25.320312 -0.101562 22.800781 0.390625 20.09375 0.390625 Z M 21.140625 -0.609375 C 24.609375 -0.609375 27.554688 -1.351562 29.984375 -2.84375 C 32.410156 -4.34375 34.257812 -6.414062 35.53125 -9.0625 C 36.8125 -11.707031 37.453125 -14.765625 37.453125 -18.234375 C 37.453125 -20.898438 36.988281 -23.382812 36.0625 -25.6875 C 35.132812 -27.988281 33.847656 -29.992188 32.203125 -31.703125 C 30.554688 -33.421875 28.644531 -34.765625 26.46875 -35.734375 C 24.300781 -36.703125 21.976562 -37.1875 19.5 -37.1875 C 15.988281 -37.1875 13.007812 -36.414062 10.5625 -34.875 C 8.125 -33.34375 6.253906 -31.289062 4.953125 -28.71875 C 3.660156 -26.144531 3.015625 -23.328125 3.015625 -20.265625 C 3.015625 -15.992188 3.84375 -12.394531 5.5 -9.46875 C 7.164062 -6.550781 9.375 -4.34375 12.125 -2.84375 C 14.882812 -1.351562 17.890625 -0.609375 21.140625 -0.609375 Z M 21.140625 -0.609375 "/></g></g></g><g fill="#000000" fill-opacity="1"><g transform="translate(104.930939, 55.938337)"><g><path d="M 22.5625 -11.390625 L 22.078125 -11.390625 L 22.078125 -17.359375 C 22.078125 -17.835938 21.984375 -18.164062 21.796875 -18.34375 C 21.609375 -18.53125 21.1875 -18.640625 20.53125 -18.671875 L 6.625 -18.671875 L 6.625 -2.625 C 6.625 -1.789062 6.707031 -1.242188 6.875 -0.984375 C 7.039062 -0.734375 7.378906 -0.609375 7.890625 -0.609375 L 23.9375 -0.609375 C 25.207031 -0.609375 26.269531 -0.671875 27.125 -0.796875 C 27.988281 -0.921875 28.710938 -1.226562 29.296875 -1.71875 C 29.878906 -2.21875 30.40625 -2.976562 30.875 -4 C 31.351562 -5.019531 31.847656 -6.40625 32.359375 -8.15625 C 32.878906 -9.90625 33.503906 -12.113281 34.234375 -14.78125 L 34.671875 -14.734375 L 30.9375 0 L 0.65625 0 L 0.65625 -0.609375 L 3.390625 -0.609375 C 3.898438 -0.609375 4.238281 -0.734375 4.40625 -0.984375 C 4.570312 -1.242188 4.65625 -1.789062 4.65625 -2.625 L 4.65625 -35.109375 C 4.65625 -35.941406 4.570312 -36.484375 4.40625 -36.734375 C 4.238281 -36.992188 3.898438 -37.125 3.390625 -37.125 L 0.65625 -37.125 L 0.65625 -37.734375 L 29.84375 -37.734375 L 32.46875 -22.890625 L 32.03125 -22.84375 C 31.445312 -26.269531 30.9375 -28.953125 30.5 -30.890625 C 30.0625 -32.828125 29.550781 -34.238281 28.96875 -35.125 C 28.382812 -36.019531 27.617188 -36.578125 26.671875 -36.796875 C 25.722656 -37.015625 24.445312 -37.125 22.84375 -37.125 L 7.890625 -37.125 C 7.378906 -37.125 7.039062 -36.992188 6.875 -36.734375 C 6.707031 -36.484375 6.625 -35.941406 6.625 -35.109375 L 6.625 -19.28125 L 20.53125 -19.28125 C 21.1875 -19.3125 21.609375 -19.414062 21.796875 -19.59375 C 21.984375 -19.78125 22.078125 -20.113281 22.078125 -20.59375 L 22.078125 -24.921875 L 22.5625 -24.921875 Z M 22.5625 -11.390625 "/></g></g></g><g fill="#000000" fill-opacity="1"><g transform="translate(141.567774, 55.938337)"><g/></g></g><g fill="#000000" fill-opacity="1"><g transform="translate(155.587231, 55.938337)"><g/></g></g><g fill="#000000" fill-opacity="1"><g transform="translate(169.606689, 55.938337)"><g/></g></g><g fill="#000000" fill-opacity="1"><g transform="translate(183.628863, 55.938337)"><g><path d="M 0.546875 0 L 0.546875 -0.609375 L 2.734375 -0.609375 C 3.242188 -0.609375 3.632812 -0.757812 3.90625 -1.0625 C 4.1875 -1.375 4.488281 -2.132812 4.8125 -3.34375 L 13.90625 -35.984375 L 13.421875 -37.734375 L 15.328125 -37.734375 L 25.1875 -4.484375 C 25.550781 -3.316406 25.859375 -2.457031 26.109375 -1.90625 C 26.367188 -1.363281 26.65625 -1.007812 26.96875 -0.84375 C 27.28125 -0.6875 27.65625 -0.609375 28.09375 -0.609375 L 29.578125 -0.609375 L 29.578125 0 L 19.9375 0 L 19.9375 -0.609375 L 22.890625 -0.609375 C 23.367188 -0.609375 23.660156 -0.789062 23.765625 -1.15625 C 23.878906 -1.519531 23.734375 -2.375 23.328125 -3.71875 L 20.265625 -14.234375 L 8.765625 -14.234375 L 5.53125 -2.578125 C 5.3125 -1.773438 5.253906 -1.242188 5.359375 -0.984375 C 5.472656 -0.734375 5.769531 -0.609375 6.25 -0.609375 L 9.640625 -0.609375 L 9.640625 0 Z M 14.40625 -34.34375 L 8.921875 -14.84375 L 20.09375 -14.84375 Z M 14.40625 -34.34375 "/></g></g></g><g fill="#000000" fill-opacity="1"><g transform="translate(215.719411, 55.938337)"><g><path d="M 15.65625 0 L 15.65625 -0.609375 L 18.40625 -0.609375 C 18.914062 -0.609375 19.25 -0.734375 19.40625 -0.984375 C 19.570312 -1.242188 19.65625 -1.789062 19.65625 -2.625 L 19.65625 -18.671875 L 6.625 -18.671875 L 6.625 -2.625 C 6.625 -1.789062 6.707031 -1.242188 6.875 -0.984375 C 7.039062 -0.734375 7.378906 -0.609375 7.890625 -0.609375 L 10.625 -0.609375 L 10.625 0 L 0.65625 0 L 0.65625 -0.609375 L 3.390625 -0.609375 C 3.898438 -0.609375 4.238281 -0.734375 4.40625 -0.984375 C 4.570312 -1.242188 4.65625 -1.789062 4.65625 -2.625 L 4.65625 -35.109375 C 4.65625 -35.941406 4.570312 -36.484375 4.40625 -36.734375 C 4.238281 -36.992188 3.898438 -37.125 3.390625 -37.125 L 0.65625 -37.125 L 0.65625 -37.734375 L 10.625 -37.734375 L 10.625 -37.125 L 7.890625 -37.125 C 7.378906 -37.125 7.039062 -36.992188 6.875 -36.734375 C 6.707031 -36.484375 6.625 -35.941406 6.625 -35.109375 L 6.625 -19.28125 L 19.65625 -19.28125 L 19.65625 -35.109375 C 19.65625 -35.941406 19.570312 -36.484375 19.40625 -36.734375 C 19.25 -36.992188 18.914062 -37.125 18.40625 -37.125 L 15.65625 -37.125 L 15.65625 -37.734375 L 25.625 -37.734375 L 25.625 -37.125 L 22.890625 -37.125 C 22.378906 -37.125 22.039062 -36.992188 21.875 -36.734375 C 21.707031 -36.484375 21.625 -35.941406 21.625 -35.109375 L 21.625 -2.625 C 21.625 -1.789062 21.707031 -1.242188 21.875 -0.984375 C 22.039062 -0.734375 22.378906 -0.609375 22.890625 -0.609375 L 25.625 -0.609375 L 25.625 0 Z M 15.65625 0 "/></g></g></g><g fill="#000000" fill-opacity="1"><g transform="translate(243.976702, 55.938337)"><g><path d="M 20.09375 0.390625 C 16.375 0.390625 13.085938 -0.394531 10.234375 -1.96875 C 7.390625 -3.539062 5.171875 -5.710938 3.578125 -8.484375 C 1.992188 -11.265625 1.203125 -14.460938 1.203125 -18.078125 C 1.203125 -20.890625 1.6875 -23.515625 2.65625 -25.953125 C 3.625 -28.398438 4.972656 -30.546875 6.703125 -32.390625 C 8.441406 -34.234375 10.488281 -35.664062 12.84375 -36.6875 C 15.195312 -37.707031 17.742188 -38.21875 20.484375 -38.21875 C 24.203125 -38.21875 27.476562 -37.394531 30.3125 -35.75 C 33.144531 -34.113281 35.363281 -31.832031 36.96875 -28.90625 C 38.570312 -25.988281 39.375 -22.597656 39.375 -18.734375 C 39.375 -16.097656 38.878906 -13.617188 37.890625 -11.296875 C 36.910156 -8.984375 35.539062 -6.953125 33.78125 -5.203125 C 32.03125 -3.453125 29.988281 -2.082031 27.65625 -1.09375 C 25.320312 -0.101562 22.800781 0.390625 20.09375 0.390625 Z M 21.140625 -0.609375 C 24.609375 -0.609375 27.554688 -1.351562 29.984375 -2.84375 C 32.410156 -4.34375 34.257812 -6.414062 35.53125 -9.0625 C 36.8125 -11.707031 37.453125 -14.765625 37.453125 -18.234375 C 37.453125 -20.898438 36.988281 -23.382812 36.0625 -25.6875 C 35.132812 -27.988281 33.847656 -29.992188 32.203125 -31.703125 C 30.554688 -33.421875 28.644531 -34.765625 26.46875 -35.734375 C 24.300781 -36.703125 21.976562 -37.1875 19.5 -37.1875 C 15.988281 -37.1875 13.007812 -36.414062 10.5625 -34.875 C 8.125 -33.34375 6.253906 -31.289062 4.953125 -28.71875 C 3.660156 -26.144531 3.015625 -23.328125 3.015625 -20.265625 C 3.015625 -15.992188 3.84375 -12.394531 5.5 -9.46875 C 7.164062 -6.550781 9.375 -4.34375 12.125 -2.84375 C 14.882812 -1.351562 17.890625 -0.609375 21.140625 -0.609375 Z M 21.140625 -0.609375 "/></g></g></g><g fill="#000000" fill-opacity="1"><g transform="translate(285.431177, 55.938337)"><g><path d="M 11.890625 -0.609375 C 13.160156 -0.609375 14.222656 -0.671875 15.078125 -0.796875 C 15.941406 -0.921875 16.664062 -1.226562 17.25 -1.71875 C 17.832031 -2.21875 18.359375 -2.976562 18.828125 -4 C 19.304688 -5.019531 19.800781 -6.40625 20.3125 -8.15625 C 20.820312 -9.90625 21.445312 -12.113281 22.1875 -14.78125 L 22.625 -14.734375 L 18.890625 0 L 0.65625 0 L 0.65625 -0.609375 L 3.390625 -0.609375 C 3.898438 -0.609375 4.238281 -0.734375 4.40625 -0.984375 C 4.570312 -1.242188 4.65625 -1.789062 4.65625 -2.625 L 4.65625 -35.109375 C 4.65625 -35.941406 4.570312 -36.484375 4.40625 -36.734375 C 4.238281 -36.992188 3.898438 -37.125 3.390625 -37.125 L 0.65625 -37.125 L 0.65625 -37.734375 L 10.625 -37.734375 L 10.625 -37.125 L 7.890625 -37.125 C 7.378906 -37.125 7.039062 -36.992188 6.875 -36.734375 C 6.707031 -36.484375 6.625 -35.941406 6.625 -35.109375 L 6.625 -2.625 C 6.625 -1.863281 6.6875 -1.34375 6.8125 -1.0625 C 6.945312 -0.789062 7.195312 -0.640625 7.5625 -0.609375 Z M 11.890625 -0.609375 "/></g></g></g><g fill="#000000" fill-opacity="1"><g transform="translate(310.019484, 55.938337)"><g><path d="M 0.71875 0 L 0.71875 -0.609375 L 3.453125 -0.609375 C 3.960938 -0.609375 4.296875 -0.734375 4.453125 -0.984375 C 4.617188 -1.242188 4.703125 -1.789062 4.703125 -2.625 L 4.703125 -35.109375 C 4.703125 -35.941406 4.617188 -36.484375 4.453125 -36.734375 C 4.296875 -36.992188 3.960938 -37.125 3.453125 -37.125 L 0.71875 -37.125 L 0.71875 -37.734375 L 10.671875 -37.734375 L 10.671875 -37.125 L 7.9375 -37.125 C 7.425781 -37.125 7.085938 -36.992188 6.921875 -36.734375 C 6.765625 -36.484375 6.6875 -35.941406 6.6875 -35.109375 L 6.6875 -2.625 C 6.6875 -1.789062 6.765625 -1.242188 6.921875 -0.984375 C 7.085938 -0.734375 7.425781 -0.609375 7.9375 -0.609375 L 10.671875 -0.609375 L 10.671875 0 Z M 0.71875 0 "/></g></g></g><g fill="#000000" fill-opacity="1"><g transform="translate(323.381808, 55.938337)"><g><path d="M 10.78125 -35.265625 C 8.488281 -33.804688 6.640625 -31.742188 5.234375 -29.078125 C 3.828125 -26.410156 3.125 -23.234375 3.125 -19.546875 C 3.125 -16.367188 3.648438 -13.59375 4.703125 -11.21875 C 5.765625 -8.851562 7.179688 -6.882812 8.953125 -5.3125 C 10.722656 -3.738281 12.6875 -2.5625 14.84375 -1.78125 C 17 -1 19.148438 -0.609375 21.296875 -0.609375 C 24.734375 -0.609375 27.8125 -1.691406 30.53125 -3.859375 C 33.25 -6.035156 35.285156 -9.222656 36.640625 -13.421875 L 37.125 -13.359375 C 36.144531 -10.253906 34.785156 -7.6875 33.046875 -5.65625 C 31.316406 -3.632812 29.351562 -2.117188 27.15625 -1.109375 C 24.96875 -0.109375 22.671875 0.390625 20.265625 0.390625 C 16.609375 0.390625 13.347656 -0.394531 10.484375 -1.96875 C 7.617188 -3.539062 5.351562 -5.710938 3.6875 -8.484375 C 2.03125 -11.265625 1.203125 -14.460938 1.203125 -18.078125 C 1.203125 -20.554688 1.578125 -22.914062 2.328125 -25.15625 C 3.078125 -27.40625 4.132812 -29.441406 5.5 -31.265625 C 6.875 -33.097656 8.507812 -34.578125 10.40625 -35.703125 C 11.6875 -36.503906 13.082031 -37.125 14.59375 -37.5625 C 16.113281 -38 17.710938 -38.21875 19.390625 -38.21875 C 21.546875 -38.21875 23.5625 -37.878906 25.4375 -37.203125 C 27.320312 -36.535156 28.984375 -35.660156 30.421875 -34.578125 C 31.859375 -33.503906 32.960938 -32.363281 33.734375 -31.15625 L 33.734375 -38.21875 L 34.0625 -38.21875 L 36.140625 -23.328125 L 35.703125 -23.28125 C 35.234375 -25.90625 34.300781 -28.3125 32.90625 -30.5 C 31.519531 -32.695312 29.703125 -34.453125 27.453125 -35.765625 C 25.210938 -37.078125 22.539062 -37.734375 19.4375 -37.734375 C 16.257812 -37.734375 13.375 -36.910156 10.78125 -35.265625 Z M 10.78125 -35.265625 "/></g></g></g></g></g><g clip-path="url(#a3ebd3011a)"><path fill="#000000" d="M 150.636719 58.339844 L 160.144531 57.542969 L 155.507812 56.757812 C 155.378906 56.734375 155.394531 56.5625 155.523438 56.558594 L 169.839844 56.054688 C 170.171875 56.042969 170.492188 56.15625 170.742188 56.359375 C 171.910156 57.296875 173.226562 57.945312 174.085938 58.308594 C 174.277344 58.390625 174.214844 58.65625 174.003906 58.65625 L 150.644531 58.535156 C 150.511719 58.535156 150.503906 58.351562 150.636719 58.339844 " fill-opacity="1" fill-rule="nonzero"/></g><g clip-path="url(#0833352b8a)"><path fill="#000000" d="M 173.632812 56.382812 C 173.230469 56.175781 172.855469 55.933594 172.480469 55.691406 C 171.460938 55.039062 170.386719 54.472656 169.363281 53.832031 C 167.199219 52.472656 159.265625 47.375 158.121094 46.910156 C 157.335938 46.59375 156.558594 46.234375 155.878906 45.738281 C 155.8125 45.6875 155.730469 45.632812 155.648438 45.574219 C 155.035156 45.125 155.183594 44.355469 155.527344 43.8125 C 155.53125 43.804688 156.414062 42.40625 156.414062 42.40625 C 156.695312 43.753906 157.96875 44.824219 159.070312 45.636719 C 160.761719 46.886719 162.714844 47.777344 164.371094 49.078125 C 164.855469 49.457031 165.339844 49.835938 165.824219 50.214844 C 166.789062 50.972656 167.78125 51.710938 168.726562 52.492188 C 168.839844 52.585938 170.042969 53.566406 171.832031 54.582031 C 173.152344 55.332031 174.550781 55.972656 176.019531 56.421875 C 176.664062 56.617188 177.320312 56.773438 177.988281 56.882812 C 178.695312 56.996094 179.070312 56.984375 179.730469 56.714844 C 180.097656 56.566406 180.492188 56.46875 180.894531 56.421875 C 181.136719 56.394531 181.386719 56.386719 181.632812 56.398438 C 182.257812 56.425781 182.816406 56.410156 183.335938 56.351562 C 183.65625 56.316406 184.765625 55.882812 184.773438 56.460938 C 184.773438 56.652344 184.632812 56.820312 184.484375 56.953125 C 183.648438 57.699219 182.25 57.542969 181.160156 57.632812 C 180.535156 57.683594 179.90625 57.734375 179.28125 57.699219 C 178.847656 57.671875 178.417969 57.605469 177.988281 57.539062 C 176.492188 57.304688 174.960938 57.0625 173.632812 56.382812 Z M 183.246094 55.65625 C 182.765625 55.707031 182.25 55.722656 181.667969 55.695312 C 181.378906 55.683594 181.089844 55.691406 180.804688 55.726562 C 180.222656 55.789062 179.617188 55.980469 179.027344 56.101562 C 178.4375 56.222656 178.003906 56.183594 177.421875 56.058594 C 176.40625 55.835938 175.421875 55.5 174.472656 55.097656 C 172.949219 54.449219 171.511719 53.621094 170.175781 52.679688 C 169.851562 52.453125 169.527344 52.21875 169.226562 51.96875 C 169.222656 51.960938 169.21875 51.957031 169.210938 51.953125 C 168.753906 51.59375 168.007812 51.277344 168.214844 50.632812 C 168.386719 50.101562 170.976562 49.421875 171.394531 49.273438 C 171.648438 49.183594 171.917969 49.125 172.1875 49.09375 C 172.839844 49.019531 173.492188 49.121094 174.078125 49.382812 L 176.34375 50.402344 C 176.234375 50.703125 176.21875 50.980469 176.300781 51.226562 C 176.40625 51.53125 176.652344 51.777344 177.035156 51.957031 C 177.042969 51.960938 177.054688 51.964844 177.066406 51.96875 C 179.066406 52.777344 181.375 53.328125 183.933594 53.613281 C 183.949219 53.613281 183.964844 53.613281 183.980469 53.613281 C 184.296875 53.625 184.585938 53.597656 184.875 53.605469 C 185.074219 53.609375 185.273438 53.628906 185.480469 53.683594 C 185.734375 53.753906 186.019531 53.878906 186.082031 54.121094 C 186.34375 55.109375 183.894531 55.582031 183.246094 55.65625 Z M 185.140625 52.464844 C 184.84375 53.050781 184.128906 52.929688 183.589844 52.863281 C 182.839844 52.769531 182.09375 52.648438 181.355469 52.5 C 179.992188 52.222656 178.652344 51.84375 177.371094 51.328125 C 177.078125 51.1875 177.035156 51.054688 177.019531 51.011719 C 176.984375 50.914062 177.003906 50.792969 177.035156 50.683594 C 177.390625 50.785156 177.765625 50.816406 178.128906 50.777344 C 178.578125 50.726562 179.011719 50.566406 179.375 50.316406 L 180.457031 49.574219 C 180.492188 49.550781 180.523438 49.523438 180.554688 49.492188 C 180.507812 49.539062 182.46875 50.792969 182.628906 50.882812 C 183.089844 51.144531 183.566406 51.386719 184.054688 51.609375 C 184.289062 51.714844 184.84375 51.839844 185.078125 52.074219 C 185.179688 52.179688 185.21875 52.308594 185.140625 52.464844 Z M 179.347656 49.109375 C 179.164062 49.671875 178.652344 50.011719 178.039062 50.082031 C 177.210938 50.175781 176.53125 49.707031 175.828125 49.394531 C 175.355469 49.179688 174.878906 48.964844 174.402344 48.75 C 174.023438 48.582031 173.617188 48.464844 173.199219 48.40625 C 172.539062 48.316406 171.75 48.398438 171.128906 48.617188 C 169.394531 49.230469 167.175781 50.433594 165.519531 49.039062 C 164.816406 48.449219 164.246094 47.496094 163.929688 46.671875 C 163.769531 46.25 163.183594 44.277344 163.390625 43.859375 C 163.5625 43.515625 164.117188 43.441406 164.464844 43.375 C 164.808594 43.3125 166.929688 42.832031 167.644531 42.652344 C 168.480469 42.4375 169.273438 42.1875 169.730469 41.410156 C 170.519531 40.050781 170.015625 37.726562 170.5 37.566406 C 170.859375 37.453125 171.132812 37.933594 171.296875 38.261719 L 171.582031 38.832031 C 171.582031 38.835938 171.585938 38.839844 171.585938 38.84375 C 171.652344 38.980469 171.722656 39.109375 171.785156 39.242188 L 171.222656 39.421875 C 171.050781 39.476562 170.960938 39.652344 171.023438 39.8125 C 171.074219 39.953125 171.222656 40.035156 171.375 40.019531 C 171.398438 40.015625 171.421875 40.011719 171.445312 40.003906 L 172.078125 39.800781 C 172.082031 39.820312 172.089844 39.839844 172.101562 39.859375 C 172.339844 40.324219 172.5625 40.75 172.785156 41.160156 L 172.195312 41.351562 C 172.023438 41.410156 171.929688 41.585938 171.992188 41.746094 C 172.042969 41.886719 172.191406 41.96875 172.34375 41.949219 C 172.367188 41.949219 172.390625 41.945312 172.414062 41.9375 L 173.09375 41.710938 C 173.101562 41.734375 173.113281 41.761719 173.125 41.78125 C 173.40625 42.289062 173.667969 42.75 173.933594 43.199219 L 173.328125 43.390625 C 173.15625 43.449219 173.066406 43.625 173.125 43.785156 C 173.179688 43.925781 173.328125 44.007812 173.476562 43.988281 C 173.5 43.988281 173.523438 43.980469 173.546875 43.972656 L 174.273438 43.742188 C 174.285156 43.773438 174.300781 43.804688 174.316406 43.832031 C 174.613281 44.320312 174.921875 44.800781 175.230469 45.265625 L 174.671875 45.445312 C 174.5 45.5 174.410156 45.679688 174.472656 45.839844 C 174.523438 45.980469 174.671875 46.0625 174.824219 46.042969 C 174.847656 46.039062 174.871094 46.035156 174.894531 46.027344 L 175.609375 45.796875 C 175.625 45.839844 175.648438 45.878906 175.671875 45.917969 C 175.949219 46.3125 176.226562 46.691406 176.503906 47.046875 L 176.003906 47.199219 C 175.828125 47.257812 175.738281 47.433594 175.800781 47.59375 C 175.851562 47.734375 176 47.816406 176.152344 47.800781 C 176.175781 47.796875 176.199219 47.792969 176.222656 47.785156 L 177.007812 47.539062 C 177.046875 47.640625 177.117188 47.734375 177.214844 47.800781 C 177.546875 48.03125 177.949219 48.167969 178.363281 48.191406 C 178.539062 48.199219 178.734375 48.238281 178.90625 48.304688 C 179.238281 48.433594 179.488281 48.6875 179.347656 49.109375 Z M 164.652344 42.621094 C 163.871094 42.777344 162.957031 42.886719 162.441406 42.179688 C 162.023438 41.605469 160.835938 39.292969 160.511719 38.816406 C 160.386719 38.636719 159.5625 37.460938 160.140625 37.394531 C 160.441406 37.363281 160.746094 38.046875 160.894531 38.222656 C 161.113281 38.480469 161.339844 38.753906 161.589844 38.984375 C 164.097656 41.285156 168.035156 39.792969 169.03125 40.652344 C 169.484375 42.15625 165.496094 42.453125 164.652344 42.621094 Z M 160.589844 40.277344 C 161.054688 41.019531 161.484375 41.78125 161.859375 42.570312 C 162.273438 43.453125 163.5625 45.40625 162.363281 46.171875 C 161.652344 46.628906 161.195312 46.1875 160.609375 45.816406 C 159.96875 45.410156 159.34375 44.972656 158.773438 44.484375 C 158.042969 43.855469 157.164062 43.042969 157.128906 42.050781 C 157.125 41.941406 157.125 41.835938 157.128906 41.726562 C 157.160156 40.894531 157.421875 40.085938 157.820312 39.339844 C 158.066406 38.882812 158.628906 37.941406 159.304688 38.402344 C 159.480469 38.523438 159.664062 38.890625 159.785156 39.066406 C 160.0625 39.464844 160.332031 39.867188 160.589844 40.277344 Z M 174.042969 57.515625 C 174.132812 57.503906 174.222656 57.476562 174.300781 57.425781 L 174.449219 57.335938 L 175.621094 57.800781 L 175.625 57.8125 C 175.652344 58.027344 175.808594 58.207031 176.027344 58.273438 C 176.816406 58.523438 178.226562 58.761719 179.605469 58.605469 C 179.828125 58.582031 180.042969 58.546875 180.246094 58.503906 C 180.371094 58.480469 180.480469 58.417969 180.566406 58.328125 L 180.648438 58.242188 C 181.175781 58.382812 181.804688 58.410156 182.558594 58.324219 C 182.835938 58.292969 183.128906 58.25 183.480469 58.183594 C 184.425781 58 185.492188 57.742188 186.191406 56.96875 C 187.253906 55.800781 187.148438 54.476562 186.964844 53.078125 C 186.960938 53.058594 186.960938 53.035156 186.953125 53.011719 C 186.875 52.730469 186.613281 52.34375 186.382812 52.140625 C 186.113281 51.898438 185.757812 51.691406 185.335938 51.53125 C 183.472656 50.820312 181.683594 49.847656 180.25 48.519531 C 174.910156 44.382812 173.652344 39.289062 172.386719 37.046875 C 172.144531 36.617188 171.886719 36.171875 171.453125 35.90625 C 171 35.625 170.527344 35.640625 170.203125 35.84375 C 170.203125 35.84375 170.203125 35.839844 170.203125 35.839844 C 170.3125 31.675781 168.488281 29.191406 165.472656 27.441406 C 163.085938 26.0625 157.15625 23.539062 154.746094 19.125 C 154.707031 19.054688 154.597656 19.074219 154.585938 19.152344 C 154.242188 21.816406 155.457031 25.09375 159.375 27.011719 C 161.632812 28.242188 166.089844 29.957031 167.695312 32.652344 C 164.796875 30.488281 156.820312 28.238281 154.660156 25.125 C 154.625 25.074219 154.539062 25.097656 154.542969 25.160156 C 154.679688 27.609375 155.609375 30.574219 161.480469 32.519531 C 163.5625 33.203125 167.589844 33.726562 168.558594 36.449219 C 164.796875 33.511719 159.726562 34.75 156.84375 32.078125 C 156.796875 32.035156 156.71875 32.078125 156.734375 32.136719 C 157.265625 34.207031 159.332031 36.429688 164.402344 36.695312 C 167.402344 36.746094 169.015625 38.777344 169.015625 38.777344 C 165.953125 36.921875 165.023438 38.730469 161.402344 37.167969 C 161.355469 37.148438 161.308594 37.195312 161.328125 37.234375 C 163.410156 41.054688 166.355469 38.488281 168.675781 39.921875 C 165.546875 39.105469 162.632812 41.269531 160.347656 36.277344 C 160.253906 36.109375 160.074219 36 159.871094 35.980469 C 159.828125 35.976562 159.789062 35.976562 159.746094 35.984375 C 159.589844 36 159.445312 36.074219 159.347656 36.195312 C 159.183594 36.390625 159.011719 36.585938 158.863281 36.789062 C 157.796875 38.277344 156.777344 39.808594 156.394531 41.613281 C 156.394531 41.621094 156.394531 41.628906 156.390625 41.636719 C 156.390625 41.648438 156.390625 41.660156 156.386719 41.671875 C 156.238281 41.707031 156.105469 41.796875 156.023438 41.929688 L 155.015625 43.527344 C 154.394531 44.480469 154.347656 45.371094 154.871094 46.171875 C 155.101562 46.527344 155.457031 46.839844 155.894531 47.074219 L 157.21875 47.792969 C 157.332031 47.855469 157.464844 47.878906 157.589844 47.867188 C 157.644531 47.859375 157.703125 47.847656 157.753906 47.824219 L 158.074219 47.695312 L 158.386719 47.871094 L 158.351562 47.988281 C 158.277344 48.246094 158.410156 48.515625 158.664062 48.632812 L 160.03125 49.257812 C 160.136719 49.304688 160.253906 49.324219 160.367188 49.308594 C 160.527344 49.292969 160.679688 49.210938 160.78125 49.082031 L 160.816406 49.035156 L 161.164062 49.238281 L 161.210938 49.742188 C 161.230469 49.917969 161.332031 50.078125 161.496094 50.167969 L 162.886719 50.960938 C 163.003906 51.03125 163.140625 51.054688 163.269531 51.039062 C 163.433594 51.019531 163.589844 50.9375 163.691406 50.796875 L 163.738281 50.730469 L 164.464844 51.207031 L 164.433594 51.640625 C 164.421875 51.835938 164.515625 52.023438 164.691406 52.132812 L 166.027344 52.996094 C 166.148438 53.074219 166.296875 53.105469 166.4375 53.089844 C 166.488281 53.082031 166.539062 53.070312 166.589844 53.050781 L 166.828125 52.964844 L 167.242188 53.210938 L 167.273438 53.46875 C 167.292969 53.625 167.386719 53.765625 167.523438 53.859375 L 169.207031 54.949219 C 169.328125 55.027344 169.476562 55.058594 169.621094 55.042969 C 169.675781 55.039062 169.734375 55.023438 169.785156 55 L 170.023438 54.90625 L 170.457031 55.148438 C 170.386719 55.371094 170.46875 55.613281 170.667969 55.757812 C 170.785156 55.839844 170.902344 55.921875 171.015625 56.003906 C 171.652344 56.472656 172.3125 56.953125 173.75 57.480469 C 173.84375 57.515625 173.945312 57.527344 174.042969 57.515625 " fill-opacity="1" fill-rule="nonzero"/></g></svg>